<svg width="25" height="15" viewBox="0 0 25 15" fill="none" xmlns="http://www.w3.org/2000/svg">
<path d="M24.4301 13.1982C24.3652 13.09 23.9641 12.2218 22.0336 10.4373C20.0126 8.56865 20.2841 8.87208 22.7183 5.64101C24.2008 3.67323 24.7935 2.47153 24.608 1.9578C24.4316 1.46811 23.3412 1.59729 23.3412 1.59729L19.7155 1.61832C19.7155 1.61832 19.4471 1.58227 19.2465 1.70094C19.0519 1.8181 18.9267 2.08849 18.9267 2.08849C18.9267 2.08849 18.3521 3.61164 17.586 4.90647C15.9707 7.63884 15.3237 7.78304 15.0598 7.6133C14.446 7.21824 14.5998 6.02405 14.5998 5.17686C14.5998 2.52861 15.0025 1.42455 13.814 1.13914C13.4189 1.04451 13.1293 0.98142 12.1203 0.970905C10.8263 0.957386 9.72989 0.975411 9.11003 1.27734C8.69679 1.47862 8.37857 1.92776 8.57312 1.9533C8.81292 1.98484 9.35587 2.099 9.64393 2.48955C10.0164 2.99277 10.0029 4.12537 10.0029 4.12537C10.0029 4.12537 10.217 7.24228 9.50367 7.62983C9.01351 7.8957 8.34237 7.35343 6.90206 4.87343C6.16457 3.60413 5.60654 2.19964 5.60654 2.19964C5.60654 2.19964 5.49946 1.93827 5.30792 1.79858C5.07566 1.62884 4.7499 1.57476 4.7499 1.57476L1.30221 1.59579C1.30221 1.59579 0.784905 1.61081 0.594875 1.83463C0.425959 2.03441 0.581302 2.44599 0.581302 2.44599C0.581302 2.44599 3.28094 8.73539 6.3365 11.9064C9.1402 14.813 12.3224 14.6222 12.3224 14.6222H13.7643C13.7643 14.6222 14.2001 14.5742 14.4218 14.3353C14.6269 14.116 14.6194 13.7044 14.6194 13.7044C14.6194 13.7044 14.5907 11.7772 15.4896 11.4933C16.3749 11.2139 17.5121 13.3559 18.7171 14.1806C19.628 14.804 20.3203 14.6673 20.3203 14.6673L23.5433 14.6222C23.5433 14.6222 25.2294 14.5186 24.4301 13.1982Z" fill="url(#paint0_linear)"/>
<defs>
<linearGradient id="paint0_linear" x1="12.5806" y1="0.967773" x2="12.5806" y2="14.68" gradientUnits="userSpaceOnUse">
<stop stop-color="#EB800C"/>
<stop offset="1" stop-color="#FABB35"/>
</linearGradient>
</defs>
</svg>
