<svg width="19" height="22" viewBox="0 0 19 22" fill="none" xmlns="http://www.w3.org/2000/svg">
<path d="M10.2316 0.799805H13.6316C13.6681 0.948311 13.6965 1.0987 13.7166 1.2503C13.8203 2.43272 14.3612 3.53397 15.2336 4.3388C16.106 5.14362 17.2472 5.59414 18.4341 5.6023V8.8068C18.2751 8.8585 18.1082 8.88153 17.9411 8.8748C17.1503 8.78745 16.3664 8.64545 15.5951 8.4498C14.9295 8.19365 14.282 7.89262 13.6571 7.5488V7.9738C13.6571 9.67381 13.6571 11.4248 13.6571 13.1503C13.6656 13.8526 13.6202 14.5545 13.5211 15.2498C13.372 16.4104 12.9281 17.5135 12.2318 18.4539C11.5354 19.3943 10.6098 20.1406 9.54312 20.6218C8.91631 20.8523 8.27448 21.0397 7.62212 21.1828H6.44062C6.39112 21.1593 6.33999 21.1394 6.28762 21.1233C5.09012 20.971 3.96524 20.4651 3.05677 19.6702C2.1483 18.8753 1.49752 17.8275 1.18762 16.6608C1.04495 16.1531 0.937032 15.6362 0.864624 15.1138V14.1193C0.958124 13.6518 1.02612 13.1843 1.16212 12.7253C1.54521 11.4997 2.28534 10.4162 3.28778 9.61365C4.29022 8.81109 5.50935 8.32594 6.78912 8.2203C7.17162 8.1608 7.55412 8.1438 7.96212 8.1098C7.96212 9.2148 7.96212 10.2348 7.96212 11.2633C7.96212 11.5098 7.83462 11.5438 7.63062 11.6033C6.97891 11.7527 6.33956 11.9516 5.71812 12.1983C5.2395 12.3787 4.82829 12.7025 4.54073 13.1254C4.25316 13.5484 4.1033 14.0499 4.11162 14.5613C4.07558 15.1412 4.21113 15.7189 4.50136 16.2223C4.7916 16.7257 5.22366 17.1325 5.74362 17.3918C6.2191 17.6858 6.77138 17.8315 7.33001 17.8103C7.88864 17.7891 8.4283 17.602 8.88012 17.2728C9.21843 17.0306 9.50216 16.7201 9.713 16.3614C9.92383 16.0027 10.0571 15.6037 10.1041 15.1903C10.2057 14.3443 10.2483 13.4922 10.2316 12.6403C10.2316 8.8663 10.2316 5.08947 10.2316 1.3098C10.2571 1.13131 10.2401 0.969805 10.2316 0.799805Z" fill="url(#paint0_linear)"/>
<defs>
<linearGradient id="paint0_linear" x1="9.64937" y1="0.799805" x2="9.64937" y2="21.1828" gradientUnits="userSpaceOnUse">
<stop stop-color="#EB800C"/>
<stop offset="1" stop-color="#FABB35"/>
</linearGradient>
</defs>
</svg>
