<svg width="120" height="22" viewBox="0 0 120 22" fill="none" xmlns="http://www.w3.org/2000/svg">
<path d="M1.92969 0.283203V21.6113H0.12793V0.283203H1.92969ZM11.8613 10.0977V11.6504H1.3291V10.0977H11.8613ZM13.3408 0.283203V1.83594H1.3291V0.283203H13.3408ZM90.8018 13.9355V13.4521C90.8018 12.2998 90.9678 11.2354 91.2998 10.2588C91.6318 9.28223 92.1055 8.4375 92.7207 7.72461C93.3457 7.01172 94.0928 6.45996 94.9619 6.06934C95.8311 5.66895 96.7979 5.46875 97.8623 5.46875C98.9365 5.46875 99.9082 5.66895 100.777 6.06934C101.646 6.45996 102.394 7.01172 103.019 7.72461C103.644 8.4375 104.122 9.28223 104.454 10.2588C104.786 11.2354 104.952 12.2998 104.952 13.4521V13.9355C104.952 15.0879 104.786 16.1523 104.454 17.1289C104.122 18.0957 103.644 18.9355 103.019 19.6484C102.403 20.3613 101.661 20.918 100.792 21.3184C99.9229 21.709 98.9561 21.9043 97.8916 21.9043C96.8174 21.9043 95.8457 21.709 94.9766 21.3184C94.1074 20.918 93.3604 20.3613 92.7354 19.6484C92.1104 18.9355 91.6318 18.0957 91.2998 17.1289C90.9678 16.1523 90.8018 15.0879 90.8018 13.9355ZM92.5449 13.4521V13.9355C92.5449 14.8047 92.6621 15.6299 92.8965 16.4111C93.1309 17.1826 93.4727 17.8711 93.9219 18.4766C94.3711 19.0723 94.9277 19.541 95.5918 19.8828C96.2559 20.2246 97.0225 20.3955 97.8916 20.3955C98.751 20.3955 99.5078 20.2246 100.162 19.8828C100.826 19.541 101.383 19.0723 101.832 18.4766C102.281 17.8711 102.618 17.1826 102.843 16.4111C103.077 15.6299 103.194 14.8047 103.194 13.9355V13.4521C103.194 12.5928 103.077 11.7773 102.843 11.0059C102.618 10.2344 102.276 9.5459 101.817 8.94043C101.368 8.33496 100.812 7.85645 100.147 7.50488C99.4834 7.15332 98.7217 6.97754 97.8623 6.97754C97.0029 6.97754 96.2412 7.15332 95.5771 7.50488C94.9229 7.85645 94.3662 8.33496 93.9072 8.94043C93.458 9.5459 93.1162 10.2344 92.8818 11.0059C92.6572 11.7773 92.5449 12.5928 92.5449 13.4521ZM108.951 5.76172L113.229 12.1631L117.521 5.76172H119.601L114.225 13.5254L119.82 21.6113H117.77L113.243 14.917L108.731 21.6113H106.681L112.276 13.5254L106.9 5.76172H108.951Z" fill="#FB791B"/>
<path d="M15.626 13.9355V13.4521C15.626 12.2998 15.792 11.2354 16.124 10.2588C16.4561 9.28223 16.9297 8.4375 17.5449 7.72461C18.1699 7.01172 18.917 6.45996 19.7861 6.06934C20.6553 5.66895 21.6221 5.46875 22.6865 5.46875C23.7607 5.46875 24.7324 5.66895 25.6016 6.06934C26.4707 6.45996 27.2178 7.01172 27.8428 7.72461C28.4678 8.4375 28.9463 9.28223 29.2783 10.2588C29.6104 11.2354 29.7764 12.2998 29.7764 13.4521V13.9355C29.7764 15.0879 29.6104 16.1523 29.2783 17.1289C28.9463 18.0957 28.4678 18.9355 27.8428 19.6484C27.2275 20.3613 26.4854 20.918 25.6162 21.3184C24.7471 21.709 23.7803 21.9043 22.7158 21.9043C21.6416 21.9043 20.6699 21.709 19.8008 21.3184C18.9316 20.918 18.1846 20.3613 17.5596 19.6484C16.9346 18.9355 16.4561 18.0957 16.124 17.1289C15.792 16.1523 15.626 15.0879 15.626 13.9355ZM17.3691 13.4521V13.9355C17.3691 14.8047 17.4863 15.6299 17.7207 16.4111C17.9551 17.1826 18.2969 17.8711 18.7461 18.4766C19.1953 19.0723 19.752 19.541 20.416 19.8828C21.0801 20.2246 21.8467 20.3955 22.7158 20.3955C23.5752 20.3955 24.332 20.2246 24.9863 19.8828C25.6504 19.541 26.207 19.0723 26.6562 18.4766C27.1055 17.8711 27.4424 17.1826 27.667 16.4111C27.9014 15.6299 28.0186 14.8047 28.0186 13.9355V13.4521C28.0186 12.5928 27.9014 11.7773 27.667 11.0059C27.4424 10.2344 27.1006 9.5459 26.6416 8.94043C26.1924 8.33496 25.6357 7.85645 24.9717 7.50488C24.3076 7.15332 23.5459 6.97754 22.6865 6.97754C21.8271 6.97754 21.0654 7.15332 20.4014 7.50488C19.7471 7.85645 19.1904 8.33496 18.7314 8.94043C18.2822 9.5459 17.9404 10.2344 17.7061 11.0059C17.4814 11.7773 17.3691 12.5928 17.3691 13.4521ZM35.1523 8.38379V21.6113H33.4092V5.76172H35.1084L35.1523 8.38379ZM40.7627 5.64453L40.7188 7.25586C40.5234 7.22656 40.333 7.20215 40.1475 7.18262C39.9619 7.16309 39.7617 7.15332 39.5469 7.15332C38.7852 7.15332 38.1162 7.29492 37.54 7.57812C36.9736 7.85156 36.4951 8.2373 36.1045 8.73535C35.7139 9.22363 35.416 9.7998 35.2109 10.4639C35.0059 11.1182 34.8887 11.8213 34.8594 12.5732L34.2148 12.8223C34.2148 11.7871 34.3223 10.8252 34.5371 9.93652C34.752 9.04785 35.0791 8.27148 35.5186 7.60742C35.9678 6.93359 36.5293 6.41113 37.2031 6.04004C37.8867 5.65918 38.6875 5.46875 39.6055 5.46875C39.8301 5.46875 40.0498 5.48828 40.2646 5.52734C40.4893 5.55664 40.6553 5.5957 40.7627 5.64453ZM49.3467 21.9043C48.3115 21.9043 47.3594 21.7139 46.4902 21.333C45.6309 20.9521 44.8789 20.415 44.2344 19.7217C43.5996 19.0283 43.1064 18.208 42.7549 17.2607C42.4131 16.3037 42.2422 15.2588 42.2422 14.126V13.4961C42.2422 12.2754 42.4229 11.1719 42.7842 10.1855C43.1455 9.19922 43.6436 8.35449 44.2783 7.65137C44.9131 6.94824 45.6357 6.41113 46.4463 6.04004C47.2666 5.65918 48.126 5.46875 49.0244 5.46875C50.0303 5.46875 50.9238 5.64941 51.7051 6.01074C52.4863 6.3623 53.1406 6.86523 53.668 7.51953C54.2051 8.16406 54.6104 8.93066 54.8838 9.81934C55.1572 10.6982 55.2939 11.6699 55.2939 12.7344V13.8037H43.2969V12.3096H53.5508V12.1045C53.5312 11.2158 53.3506 10.3857 53.0088 9.61426C52.6768 8.83301 52.1787 8.19824 51.5146 7.70996C50.8506 7.22168 50.0205 6.97754 49.0244 6.97754C48.2822 6.97754 47.5986 7.13379 46.9736 7.44629C46.3584 7.75879 45.8262 8.20801 45.377 8.79395C44.9375 9.37012 44.5957 10.0586 44.3516 10.8594C44.1172 11.6504 44 12.5293 44 13.4961V14.126C44 15.0049 44.127 15.8252 44.3809 16.5869C44.6445 17.3389 45.0156 18.0029 45.4941 18.5791C45.9824 19.1553 46.5586 19.6045 47.2227 19.9268C47.8867 20.249 48.6191 20.4102 49.4199 20.4102C50.3574 20.4102 51.1875 20.2393 51.9102 19.8975C52.6328 19.5459 53.2822 18.9941 53.8584 18.2422L54.957 19.0918C54.6152 19.5996 54.1855 20.0684 53.668 20.498C53.1602 20.9277 52.5498 21.2695 51.8369 21.5234C51.124 21.7773 50.2939 21.9043 49.3467 21.9043ZM59.4395 5.76172L63.7168 12.1631L68.0088 5.76172H70.0889L64.7129 13.5254L70.3086 21.6113H68.2578L63.7314 14.917L59.2197 21.6113H57.1689L62.7646 13.5254L57.3887 5.76172H59.4395ZM81.1191 11.3574H75.1133L75.084 9.83398H80.2549C81.3096 9.83398 82.208 9.68262 82.9502 9.37988C83.6924 9.07715 84.2539 8.62793 84.6348 8.03223C85.0254 7.42676 85.2207 6.68457 85.2207 5.80566C85.2207 4.90723 85.0303 4.16504 84.6494 3.5791C84.2686 2.9834 83.6973 2.54395 82.9355 2.26074C82.1738 1.97754 81.2168 1.83594 80.0645 1.83594H75.582V21.6113H73.7803V0.283203H80.0645C81.1484 0.283203 82.1201 0.390625 82.9795 0.605469C83.8389 0.820313 84.5713 1.15723 85.1768 1.61621C85.7822 2.0752 86.2412 2.65625 86.5537 3.35938C86.876 4.05273 87.0371 4.88281 87.0371 5.84961C87.0371 6.72852 86.8418 7.52441 86.4512 8.2373C86.0605 8.94043 85.5088 9.5166 84.7959 9.96582C84.0928 10.4053 83.248 10.6787 82.2617 10.7861L81.1191 11.3574ZM80.9873 21.6113H74.542L75.4648 20.0732H80.9873C82.042 20.0732 82.9404 19.8975 83.6826 19.5459C84.4346 19.1846 85.0107 18.6719 85.4111 18.0078C85.8115 17.3438 86.0117 16.5527 86.0117 15.6348C86.0117 14.8242 85.8359 14.0967 85.4844 13.4521C85.1328 12.8076 84.5957 12.2998 83.873 11.9287C83.1504 11.5479 82.2324 11.3574 81.1191 11.3574H77.3838L77.4131 9.83398H82.7012L83.0234 10.376C83.9805 10.4736 84.8154 10.7715 85.5283 11.2695C86.251 11.7578 86.8076 12.3779 87.1982 13.1299C87.5986 13.8818 87.7988 14.707 87.7988 15.6055C87.7988 16.8945 87.5107 17.9883 86.9346 18.8867C86.3682 19.7754 85.5723 20.4541 84.5469 20.9229C83.5312 21.3818 82.3447 21.6113 80.9873 21.6113Z" fill="#FABB35"/>
</svg>
