<svg width="154" height="35" viewBox="0 0 154 35" fill="none" xmlns="http://www.w3.org/2000/svg">
<path d="M44.9053 24.0391H34.959V34H33.1572V12.6719H46.3701V14.21H34.959V22.501H44.9053V24.0391ZM123.772 25.8408C123.772 24.3174 124.065 22.9453 124.651 21.7246C125.247 20.5039 126.082 19.5566 127.156 18.8828C128.24 18.1992 129.466 17.8574 130.833 17.8574C132.942 17.8574 134.651 18.5996 135.96 20.084C137.269 21.5586 137.923 23.5166 137.923 25.958V26.3242C137.923 27.8574 137.625 29.2393 137.029 30.4697C136.443 31.6904 135.613 32.6328 134.539 33.2969C133.465 33.9609 132.239 34.293 130.862 34.293C128.763 34.293 127.054 33.5557 125.735 32.0811C124.427 30.5967 123.772 28.6338 123.772 26.1924V25.8408ZM125.53 26.3242C125.53 28.2188 126.019 29.7764 126.995 30.9971C127.981 32.208 129.271 32.8135 130.862 32.8135C132.444 32.8135 133.724 32.208 134.7 30.9971C135.687 29.7764 136.18 28.1699 136.18 26.1777V25.8408C136.18 24.6299 135.955 23.5215 135.506 22.5156C135.057 21.5098 134.427 20.7334 133.616 20.1865C132.806 19.6299 131.878 19.3516 130.833 19.3516C129.271 19.3516 127.996 19.9668 127.01 21.1973C126.023 22.418 125.53 24.0195 125.53 26.002V26.3242ZM146.214 24.5811L150.491 18.1504H152.571L147.195 25.9287L152.806 34H150.74L146.229 27.291L141.717 34H139.651L145.247 25.9287L139.871 18.1504H141.937L146.214 24.5811Z" fill="#FB791B"/>
<path d="M48.6553 25.8408C48.6553 24.3174 48.9482 22.9453 49.5342 21.7246C50.1299 20.5039 50.9648 19.5566 52.0391 18.8828C53.123 18.1992 54.3486 17.8574 55.7158 17.8574C57.8252 17.8574 59.5342 18.5996 60.8428 20.084C62.1514 21.5586 62.8057 23.5166 62.8057 25.958V26.3242C62.8057 27.8574 62.5078 29.2393 61.9121 30.4697C61.3262 31.6904 60.4961 32.6328 59.4219 33.2969C58.3477 33.9609 57.1221 34.293 55.7451 34.293C53.6455 34.293 51.9365 33.5557 50.6182 32.0811C49.3096 30.5967 48.6553 28.6338 48.6553 26.1924V25.8408ZM50.4131 26.3242C50.4131 28.2188 50.9014 29.7764 51.8779 30.9971C52.8643 32.208 54.1533 32.8135 55.7451 32.8135C57.3271 32.8135 58.6064 32.208 59.583 30.9971C60.5693 29.7764 61.0625 28.1699 61.0625 26.1777V25.8408C61.0625 24.6299 60.8379 23.5215 60.3887 22.5156C59.9395 21.5098 59.3096 20.7334 58.499 20.1865C57.6885 19.6299 56.7607 19.3516 55.7158 19.3516C54.1533 19.3516 52.8789 19.9668 51.8926 21.1973C50.9062 22.418 50.4131 24.0195 50.4131 26.002V26.3242ZM73.7627 19.6445C73.3916 19.5762 72.9961 19.542 72.5762 19.542C71.4824 19.542 70.5547 19.8496 69.793 20.4648C69.041 21.0703 68.5039 21.9541 68.1816 23.1162V34H66.4385V18.1504H68.1523L68.1816 20.6699C69.1094 18.7949 70.5986 17.8574 72.6494 17.8574C73.1377 17.8574 73.5234 17.9209 73.8066 18.0479L73.7627 19.6445ZM82.3906 34.293C81.043 34.293 79.8223 33.9609 78.7285 33.2969C77.6445 32.6328 76.7998 31.71 76.1943 30.5283C75.5889 29.3369 75.2861 28.0039 75.2861 26.5293V25.8994C75.2861 24.376 75.5791 23.0039 76.165 21.7832C76.7607 20.5625 77.5859 19.6055 78.6406 18.9121C79.6953 18.209 80.8379 17.8574 82.0684 17.8574C83.9922 17.8574 85.5156 18.5166 86.6387 19.835C87.7715 21.1436 88.3379 22.9355 88.3379 25.2109V26.1924H77.0293V26.5293C77.0293 28.3262 77.542 29.8252 78.5674 31.0264C79.6025 32.2178 80.9014 32.8135 82.4639 32.8135C83.4014 32.8135 84.2266 32.6426 84.9395 32.3008C85.6621 31.959 86.3164 31.4121 86.9023 30.6602L88.001 31.4951C86.7119 33.3604 84.8418 34.293 82.3906 34.293ZM82.0684 19.3516C80.75 19.3516 79.6367 19.835 78.7285 20.8018C77.8301 21.7686 77.2832 23.0674 77.0879 24.6982H86.5947V24.5078C86.5459 22.9844 86.1113 21.7441 85.291 20.7871C84.4707 19.8301 83.3965 19.3516 82.0684 19.3516ZM96.7314 24.5811L101.009 18.1504H103.089L97.7129 25.9287L103.323 34H101.258L96.7461 27.291L92.2344 34H90.1689L95.7646 25.9287L90.3887 18.1504H92.4541L96.7314 24.5811ZM106.751 34V12.6719H113.05C115.335 12.6719 117.068 13.1455 118.25 14.0928C119.432 15.0303 120.022 16.417 120.022 18.2529C120.022 19.3564 119.72 20.3184 119.114 21.1387C118.519 21.9492 117.698 22.5303 116.653 22.8818C117.894 23.1553 118.89 23.7656 119.642 24.7129C120.403 25.6602 120.784 26.7539 120.784 27.9941C120.784 29.8789 120.174 31.3535 118.953 32.418C117.742 33.4727 116.053 34 113.885 34H106.751ZM108.553 23.7461V32.4766H113.958C115.501 32.4766 116.722 32.0859 117.62 31.3047C118.528 30.5137 118.982 29.4199 118.982 28.0234C118.982 26.7051 118.548 25.665 117.679 24.9033C116.819 24.1318 115.628 23.7461 114.104 23.7461H108.553ZM108.553 22.2373H113.475C114.979 22.208 116.141 21.8564 116.961 21.1826C117.791 20.499 118.206 19.5078 118.206 18.209C118.206 16.8418 117.776 15.8359 116.917 15.1914C116.067 14.5371 114.778 14.21 113.05 14.21H108.553V22.2373Z" fill="#FABB35"/>
<path d="M15.6667 5.125L1 1.45833V14.75M23 1V34H1V14.75M1 14.75H13.8333" stroke="#FB791B" stroke-width="2"/>
</svg>
