<svg width="42" height="42" viewBox="0 0 42 42" fill="none" xmlns="http://www.w3.org/2000/svg">
<circle cx="21" cy="21" r="20" stroke="url(#paint0_linear_2_8697)" stroke-width="2"/>
<path d="M22.5309 17.25V30H19.8434V17.25H22.5309ZM22.9809 13.4C22.9809 13.6417 22.9309 13.8708 22.8309 14.0875C22.7393 14.3042 22.6101 14.4958 22.4434 14.6625C22.2768 14.8208 22.0809 14.95 21.8559 15.05C21.6393 15.1417 21.4059 15.1875 21.1559 15.1875C20.9143 15.1875 20.6851 15.1417 20.4684 15.05C20.2601 14.95 20.0768 14.8208 19.9184 14.6625C19.7601 14.4958 19.6309 14.3042 19.5309 14.0875C19.4393 13.8708 19.3934 13.6417 19.3934 13.4C19.3934 13.15 19.4393 12.9167 19.5309 12.7C19.6309 12.4833 19.7601 12.2958 19.9184 12.1375C20.0768 11.9708 20.2601 11.8417 20.4684 11.75C20.6851 11.65 20.9143 11.6 21.1559 11.6C21.4059 11.6 21.6393 11.65 21.8559 11.75C22.0809 11.8417 22.2768 11.9708 22.4434 12.1375C22.6101 12.2958 22.7393 12.4833 22.8309 12.7C22.9309 12.9167 22.9809 13.15 22.9809 13.4Z" fill="url(#paint1_linear_2_8697)"/>
<defs>
<linearGradient id="paint0_linear_2_8697" x1="21" y1="0" x2="21" y2="42" gradientUnits="userSpaceOnUse">
<stop stop-color="#FABB35"/>
<stop offset="1" stop-color="#EB800C"/>
</linearGradient>
<linearGradient id="paint1_linear_2_8697" x1="21.1818" y1="5" x2="21.1818" y2="35.5455" gradientUnits="userSpaceOnUse">
<stop stop-color="#FABB35"/>
<stop offset="1" stop-color="#EB800C"/>
</linearGradient>
</defs>
</svg>
