<svg width="20" height="20" viewBox="0 0 20 20" fill="none" xmlns="http://www.w3.org/2000/svg">
<path d="M0.870972 4.63291V15.4864C0.870972 17.6174 2.60541 19.3449 4.74499 19.3449H15.6421C17.7817 19.3449 19.5161 17.6174 19.5161 15.4864V4.63291C19.5161 2.50191 17.7817 0.774414 15.6421 0.774414H4.74499C2.60541 0.774414 0.870972 2.50191 0.870972 4.63291ZM12.1686 15.3214C7.56976 16.9017 3.32395 12.6729 4.91068 8.09255C5.44532 6.54878 6.66845 5.33044 8.21842 4.79794C12.8173 3.21757 17.0632 7.44636 15.4764 12.0269C14.9418 13.5706 13.7187 14.7889 12.1686 15.3214ZM16.6633 4.4443C16.5901 4.82594 16.273 5.04798 15.9451 5.04798C15.7454 5.04798 15.542 4.96592 15.3862 4.78785C15.3724 4.7721 15.3595 4.75521 15.3482 4.73764C15.1874 4.49282 15.1824 4.20197 15.319 3.9661C15.4158 3.79914 15.5719 3.6799 15.7589 3.63003C15.9456 3.57993 16.1409 3.60566 16.3083 3.70212C16.5452 3.83813 16.6868 4.09259 16.6707 4.38434C16.6695 4.40429 16.6671 4.42458 16.6633 4.4443Z" fill="url(#paint0_linear)"/>
<path d="M10.1946 5.54785C7.6969 5.54785 5.6651 7.57152 5.6651 10.0592C5.6651 12.5469 7.6969 14.5706 10.1946 14.5706C12.6923 14.5706 14.7241 12.5469 14.7241 10.0592C14.7241 7.57152 12.6923 5.54785 10.1946 5.54785Z" fill="url(#paint1_linear)"/>
<defs>
<linearGradient id="paint0_linear" x1="10.1936" y1="0.774414" x2="10.1936" y2="19.3449" gradientUnits="userSpaceOnUse">
<stop stop-color="#EB800C"/>
<stop offset="1" stop-color="#FABB35"/>
</linearGradient>
<linearGradient id="paint1_linear" x1="10.1946" y1="5.54785" x2="10.1946" y2="14.5706" gradientUnits="userSpaceOnUse">
<stop stop-color="#EB800C"/>
<stop offset="1" stop-color="#FABB35"/>
</linearGradient>
</defs>
</svg>
