<svg width="25" height="21" viewBox="0 0 25 21" fill="none" xmlns="http://www.w3.org/2000/svg">
<line y1="20" x2="25" y2="20" stroke="#EB800C" stroke-width="2"/>
<path d="M12.2929 16.7071C12.6834 17.0976 13.3166 17.0976 13.7071 16.7071L20.0711 10.3431C20.4616 9.95262 20.4616 9.31946 20.0711 8.92893C19.6805 8.53841 19.0474 8.53841 18.6569 8.92893L13 14.5858L7.34315 8.92893C6.95262 8.53841 6.31946 8.53841 5.92893 8.92893C5.53841 9.31946 5.53841 9.95262 5.92893 10.3431L12.2929 16.7071ZM12 -4.37113e-08L12 16L14 16L14 4.37113e-08L12 -4.37113e-08Z" fill="url(#paint0_linear)"/>
<defs>
<linearGradient id="paint0_linear" x1="12.5" y1="18" x2="12" y2="-1.5" gradientUnits="userSpaceOnUse">
<stop stop-color="#EB800C"/>
<stop offset="1" stop-color="#FABB35"/>
</linearGradient>
</defs>
</svg>
