<svg width="20" height="17" viewBox="0 0 20 17" fill="none" xmlns="http://www.w3.org/2000/svg">
<path d="M19.6912 0.440992C19.4468 0.156678 19.0809 0 18.6608 0C18.4322 0 18.1904 0.0458853 17.9417 0.136204L1.01199 6.28614C0.113556 6.61242 -0.00744537 7.10205 0.000336564 7.36502C0.00811849 7.62785 0.158112 8.11022 1.07455 8.38757C1.08004 8.38931 1.08554 8.39076 1.09103 8.39236L3.46528 9.03882L15.0283 3.41715C15.3164 3.27688 15.6695 3.38578 15.8167 3.66008C15.9324 3.87556 15.886 4.1288 15.7212 4.2955L9.29258 10.7967L9.10917 11.504L11.405 13.2633L14.5864 15.7012C14.5892 15.7032 14.5919 15.7054 14.5948 15.7074C14.9449 15.9659 15.3272 16.1024 15.7006 16.1025C16.4303 16.1025 17.0112 15.5887 17.1804 14.7935L19.9543 1.75918C20.0655 1.23614 19.9722 0.767852 19.6912 0.440992Z" fill="url(#paint0_linear)"/>
<path d="M8.19197 10.3875C8.21532 10.2973 8.26231 10.2114 8.33388 10.1389L12.5525 5.87305L4.72424 9.67903L6.50175 14.5167C6.60307 14.7923 6.75382 15.027 6.94029 15.2107L8.19166 10.3874L8.19197 10.3875Z" fill="url(#paint1_linear)"/>
<path d="M8.03125 15.6582C8.45376 15.6549 8.86895 15.4853 9.23271 15.1665L10.5332 14.0269L8.79922 12.6982L8.03125 15.6582Z" fill="url(#paint2_linear)"/>
<defs>
<linearGradient id="paint0_linear" x1="10" y1="0" x2="10" y2="16.1025" gradientUnits="userSpaceOnUse">
<stop stop-color="#EC840F"/>
<stop offset="1" stop-color="#FABB35"/>
</linearGradient>
<linearGradient id="paint1_linear" x1="8.63837" y1="5.87305" x2="8.63837" y2="15.2107" gradientUnits="userSpaceOnUse">
<stop stop-color="#EC840F"/>
<stop offset="1" stop-color="#FABB35"/>
</linearGradient>
<linearGradient id="paint2_linear" x1="9.28223" y1="12.6982" x2="9.28223" y2="15.6582" gradientUnits="userSpaceOnUse">
<stop stop-color="#EC840F"/>
<stop offset="1" stop-color="#FABB35"/>
</linearGradient>
</defs>
</svg>
