<svg width="18" height="18" viewBox="0 0 18 18" fill="none" xmlns="http://www.w3.org/2000/svg">
<g clip-path="url(#clip0)">
<path d="M11.2965 2.93088C10.8461 1.76207 10.2799 0.777695 9.62923 0.022934C9.41554 0.00782775 9.20049 0 8.98433 0C8.76804 0 8.55298 0.00782775 8.33943 0.022934C7.68863 0.777695 7.12242 1.76193 6.67212 2.93088C6.52669 3.30826 6.39595 3.69951 6.27991 4.10216H11.6888C11.5726 3.69951 11.4418 3.30826 11.2965 2.93088Z" fill="url(#paint0_linear)"/>
<path d="M6.0153 12.8432H11.9533C12.1803 11.7882 12.3121 10.6717 12.3432 9.52734H5.62543C5.65646 10.6718 5.7883 11.7882 6.0153 12.8432Z" fill="url(#paint1_linear)"/>
<path d="M11.9533 5.15625H6.0153C5.7883 6.21121 5.65646 7.3277 5.62543 8.47206H12.3432C12.3121 7.32756 12.1803 6.21121 11.9533 5.15625Z" fill="url(#paint2_linear)"/>
<path d="M6.67198 15.0697C7.12242 16.2385 7.68863 17.2229 8.33929 17.9777C8.55298 17.9928 8.76804 18.0006 8.98433 18.0006C9.20049 18.0006 9.41554 17.9928 9.62923 17.9777C10.2799 17.2229 10.8461 16.2387 11.2964 15.0697C11.4418 14.6923 11.5726 14.3011 11.6886 13.8984H6.27991C6.39595 14.3011 6.52669 14.6923 6.67198 15.0697Z" fill="url(#paint3_linear)"/>
<path d="M13.0287 5.15707C13.2414 6.21011 13.3683 7.32495 13.3981 8.47288H17.9686C17.9018 7.30957 17.6151 6.18773 17.1273 5.15625C17.1222 5.15639 17.1172 5.15707 17.1122 5.15707H13.0287Z" fill="url(#paint4_linear)"/>
<path d="M4.94 12.8432C4.72714 11.7901 4.60025 10.6753 4.57045 9.52734H0C0.066742 10.6907 0.353485 11.8125 0.841278 12.844C0.846359 12.8438 0.851303 12.8432 0.856384 12.8432H4.94Z" fill="url(#paint5_linear)"/>
<path d="M12.7812 13.8984C12.3886 15.3625 11.8222 16.675 11.1161 17.7475C12.7051 17.3633 14.1629 16.5498 15.3482 15.3646C15.7998 14.9129 16.197 14.4214 16.5376 13.8984H12.7812Z" fill="url(#paint6_linear)"/>
<path d="M5.18733 4.10199C5.58009 2.63792 6.1463 1.32547 6.85245 0.25293C5.26355 0.637176 3.80566 1.45058 2.62024 2.63586C2.1687 3.08754 1.77155 3.57904 1.43097 4.10199H5.18733Z" fill="url(#paint7_linear)"/>
<path d="M5.18733 13.8984H1.43097C1.77155 14.4214 2.1687 14.9129 2.62024 15.3646C3.80566 16.5498 5.26341 17.3633 6.85231 17.7475C6.1463 16.675 5.58009 15.3625 5.18733 13.8984Z" fill="url(#paint8_linear)"/>
<path d="M12.7812 4.10199H16.5376C16.197 3.57904 15.8 3.08754 15.3483 2.63586C14.1629 1.45058 12.7051 0.637176 11.1161 0.25293C11.8222 1.32547 12.3886 2.63792 12.7812 4.10199Z" fill="url(#paint9_linear)"/>
<path d="M13.3981 9.52734C13.3683 10.6753 13.2415 11.7901 13.0287 12.8432H17.1122C17.1172 12.8432 17.1222 12.8438 17.1273 12.844C17.6151 11.8125 17.9018 10.6907 17.9686 9.52734H13.3981Z" fill="url(#paint10_linear)"/>
<path d="M4.57045 8.47288C4.60025 7.32495 4.72714 6.21011 4.94 5.15707H0.856384C0.851303 5.15707 0.846359 5.15639 0.841278 5.15625C0.353485 6.18773 0.066742 7.30957 0 8.47288H4.57045Z" fill="url(#paint11_linear)"/>
</g>
<defs>
<linearGradient id="paint0_linear" x1="8.98433" y1="0" x2="8.98433" y2="4.10216" gradientUnits="userSpaceOnUse">
<stop stop-color="#EB800C"/>
<stop offset="1" stop-color="#FABB35"/>
</linearGradient>
<linearGradient id="paint1_linear" x1="8.98429" y1="9.52734" x2="8.98429" y2="12.8432" gradientUnits="userSpaceOnUse">
<stop stop-color="#EB800C"/>
<stop offset="1" stop-color="#FABB35"/>
</linearGradient>
<linearGradient id="paint2_linear" x1="8.98429" y1="5.15625" x2="8.98429" y2="8.47206" gradientUnits="userSpaceOnUse">
<stop stop-color="#EB800C"/>
<stop offset="1" stop-color="#FABB35"/>
</linearGradient>
<linearGradient id="paint3_linear" x1="8.98426" y1="13.8984" x2="8.98426" y2="18.0006" gradientUnits="userSpaceOnUse">
<stop stop-color="#EB800C"/>
<stop offset="1" stop-color="#FABB35"/>
</linearGradient>
<linearGradient id="paint4_linear" x1="15.4986" y1="5.15625" x2="15.4986" y2="8.47288" gradientUnits="userSpaceOnUse">
<stop stop-color="#EB800C"/>
<stop offset="1" stop-color="#FABB35"/>
</linearGradient>
<linearGradient id="paint5_linear" x1="2.47" y1="9.52734" x2="2.47" y2="12.844" gradientUnits="userSpaceOnUse">
<stop stop-color="#EB800C"/>
<stop offset="1" stop-color="#FABB35"/>
</linearGradient>
<linearGradient id="paint6_linear" x1="13.8268" y1="13.8984" x2="13.8268" y2="17.7475" gradientUnits="userSpaceOnUse">
<stop stop-color="#EB800C"/>
<stop offset="1" stop-color="#FABB35"/>
</linearGradient>
<linearGradient id="paint7_linear" x1="4.14171" y1="0.25293" x2="4.14171" y2="4.10199" gradientUnits="userSpaceOnUse">
<stop stop-color="#EB800C"/>
<stop offset="1" stop-color="#FABB35"/>
</linearGradient>
<linearGradient id="paint8_linear" x1="4.14164" y1="13.8984" x2="4.14164" y2="17.7475" gradientUnits="userSpaceOnUse">
<stop stop-color="#EB800C"/>
<stop offset="1" stop-color="#FABB35"/>
</linearGradient>
<linearGradient id="paint9_linear" x1="13.8268" y1="0.25293" x2="13.8268" y2="4.10199" gradientUnits="userSpaceOnUse">
<stop stop-color="#EB800C"/>
<stop offset="1" stop-color="#FABB35"/>
</linearGradient>
<linearGradient id="paint10_linear" x1="15.4986" y1="9.52734" x2="15.4986" y2="12.844" gradientUnits="userSpaceOnUse">
<stop stop-color="#EB800C"/>
<stop offset="1" stop-color="#FABB35"/>
</linearGradient>
<linearGradient id="paint11_linear" x1="2.47" y1="5.15625" x2="2.47" y2="8.47288" gradientUnits="userSpaceOnUse">
<stop stop-color="#EB800C"/>
<stop offset="1" stop-color="#FABB35"/>
</linearGradient>
<clipPath id="clip0">
<rect width="18" height="18" fill="white"/>
</clipPath>
</defs>
</svg>
