<svg width="23" height="16" viewBox="0 0 23 16" fill="none" xmlns="http://www.w3.org/2000/svg">
<path d="M22.1855 2.71334C21.9325 1.76674 21.1871 1.02136 20.2405 0.768359C18.5247 0.308594 11.6451 0.308594 11.6451 0.308594C11.6451 0.308594 4.76554 0.308594 3.04972 0.768359C2.10329 1.02136 1.35774 1.76674 1.10478 2.71334C0.645142 4.429 0.645142 8.00872 0.645142 8.00872C0.645142 8.00872 0.645142 11.5884 1.10478 13.3038C1.35774 14.2504 2.10329 14.996 3.04972 15.249C4.76554 15.7086 11.6451 15.7086 11.6451 15.7086C11.6451 15.7086 18.5247 15.7086 20.2405 15.249C21.1871 14.996 21.9325 14.2504 22.1855 13.3038C22.6451 11.5884 22.6451 8.00872 22.6451 8.00872C22.6451 8.00872 22.6451 4.429 22.1855 2.71334ZM9.44501 11.3088V4.70864L15.1607 8.00872L9.44501 11.3088Z" fill="url(#paint0_linear)"/>
<defs>
<linearGradient id="paint0_linear" x1="11.6451" y1="0.308594" x2="11.6451" y2="15.7086" gradientUnits="userSpaceOnUse">
<stop stop-color="#EB800C"/>
<stop offset="1" stop-color="#FABB35"/>
</linearGradient>
</defs>
</svg>
